<?xml version="1.0" standalone="no"?>
<!DOCTYPE svg PUBLIC "-//W3C//DTD SVG 20010904//EN"
 "http://www.w3.org/TR/2001/REC-SVG-20010904/DTD/svg10.dtd">
<svg version="1.0" xmlns="http://www.w3.org/2000/svg"
 width="80" height="80" viewBox="0 0 512 341"
 preserveAspectRatio="xMidYMid slice">
  <g transform="translate(0,341) scale(0.1,-0.1)"
     fill="#1ea110" stroke="none">
    <path d="M2405 2495 c-163 -37 -284 -102 -395 -215 -245 -248 -294 -630 -121
    -932 39 -66 39 -67 19 -85 -54 -48 -58 -115 -11 -153 35 -27 75 -25 111 5 17
    14 32 25 35 25 3 0 44 -25 93 -55 53 -33 125 -68 183 -87 89 -30 106 -32 236
    -32 105 -1 156 4 205 17 82 22 211 85 270 130 l45 34 35 -28 c56 -47 120 -36
    146 26 17 40 11 59 -29 102 l-31 33 41 77 c82 155 113 308 94 461 -19 145 -66
    268 -142 369 l-39 52 20 33 c26 43 25 64 -5 93 -28 29 -63 32 -106 10 -29 -15
    -32 -15 -87 19 -163 101 -389 141 -567 101z m338 -61 c63 -16 171 -62 207 -87
    20 -14 20 -16 -28 -50 l-49 -36 -70 29 c-137 58 -296 63 -442 14 -41 -14 -77
    -21 -80 -17 -3 4 -21 25 -40 45 l-34 38 55 24 c148 65 326 80 481 40z m385
    -121 c3 -17 -36 -62 -169 -198 -194 -197 -301 -290 -324 -281 -29 11 -29 38 1
    95 53 103 270 306 407 382 59 33 81 33 85 2z m-835 -111 c120 -122 132 -140
    127 -187 -5 -48 -65 -95 -122 -95 -34 0 -45 9 -148 120 -139 148 -144 154
    -126 169 11 9 21 3 46 -26 74 -86 143 -154 154 -150 30 10 12 43 -69 132 -71
    77 -84 96 -70 101 12 5 39 -17 104 -86 65 -70 91 -92 104 -87 30 11 19 33 -69
    125 -74 80 -93 112 -65 112 4 0 64 -58 134 -128z m437 58 c36 -11 71 -24 79
    -29 10 -6 -11 -33 -85 -108 -59 -58 -111 -121 -128 -153 -16 -30 -31 -57 -33
    -59 -2 -3 -24 15 -48 39 -40 39 -44 48 -39 76 7 40 -5 63 -77 143 -32 36 -56
    68 -54 72 5 6 102 34 155 43 48 9 167 -4 230 -24z m421 -112 c145 -196 169
    -491 60 -724 -21 -45 -44 -85 -51 -89 -8 -5 -27 7 -51 31 l-38 39 30 60 c43
    88 59 158 59 267 0 114 -28 218 -85 312 -19 32 -35 61 -35 63 0 10 62 83 71
    83 5 0 23 -19 40 -42z m-1110 -70 c6 -11 0 -35 -21 -80 -81 -174 -81 -363 0
    -533 l29 -60 -43 -44 -44 -44 -45 94 c-94 195 -102 404 -23 599 15 36 38 82
    52 104 l26 38 30 -28 c16 -16 34 -36 39 -46z m1010 -100 c75 -148 78 -329 8
    -481 -13 -26 -26 -46 -29 -45 -16 6 -340 322 -338 329 2 3 70 71 152 149 169
    161 151 157 207 48z m-797 -103 c33 -13 51 -14 79 -7 33 9 37 8 73 -29 l38
    -39 -174 -175 c-96 -96 -178 -175 -181 -175 -10 0 -47 91 -64 156 -29 113 -13
    260 41 366 l26 52 59 -66 c41 -45 73 -72 103 -83z m521 -255 c83 -80 214 -209
    293 -285 78 -76 142 -147 142 -156 0 -10 -10 -23 -21 -30 -20 -10 -47 16 -343
    318 -477 488 -461 470 -446 488 14 17 -9 37 375 -335z m-265 115 c11 -14 -3
    -32 -96 -128 -60 -62 -184 -189 -275 -283 -91 -94 -170 -174 -176 -177 -18
    -12 -43 4 -43 27 0 14 87 108 277 298 153 153 283 278 289 278 6 0 17 -7 24
    -15z m233 -239 l177 -185 -29 -20 c-16 -12 -62 -37 -103 -56 -148 -70 -315
    -68 -463 4 -137 67 -138 55 22 222 76 79 154 161 172 182 19 20 37 37 40 37 3
    0 86 -83 184 -184z m-540 -250 c98 -75 262 -122 393 -112 128 9 194 34 342
    127 22 13 25 12 64 -30 l41 -44 -24 -18 c-185 -140 -425 -189 -645 -134 -73
    19 -207 84 -254 124 l-35 29 40 41 c21 23 41 41 43 41 2 0 18 -11 35 -24z"/>
  </g>
</svg>
